# xmcd CD database file
#
# Track frame offsets:
#	150
#	12815
#	25772
#	36973
#	48214
#	62068
#	74216
#	83423
#	97249
#	110818
#	120063
#	129256
#	139585
#	151022
#	161533
#	174614
#	186427
#	196924
#	208138
#	220710
#	232161
#	245712
#	256898
#	269866
#	283274
#	294028
#	305555
#	316604
#	329912
#
# Disc length: 4558 seconds
#
# Revision: 0
# Processed by: cddbd v1.5.2PL0 Copyright (c) Steve Scherf et al.
# Submitted via: Feurio! 1.68 - http://www.feurio.com
#
DISCID=b011cc1d
DTITLE=Ike Turner - Rocket 88: A Proper Introduction To Ike Turner, Jackie 
DTITLE=Brenston
DYEAR=1900
DGENRE=blues
TTITLE0=Jackie Brenston and His Delta Cats - Rocket 88
TTITLE1=Jackie Brenston and His Delta Cats - Independent Woman
TTITLE2=Jackie Brenston and His Delta Cats - My Real Gone Rocket
TTITLE3=Jackie Brenston and His Delta Cats - Tuckered Out
TTITLE4=B.B. King - You Know I Love You
TTITLE5=Howlin' Wolf - How Many More Years
TTITLE6=Robert Bland - Dry Up Baby
TTITLE7=Howlin' Wolf - Ridin' In The Moonlight
TTITLE8=B.B. King - 3 O'Clock Blues
TTITLE9=Baby Face Turner - Gonna Let You Go
TTITLE10=Baby Face Turner - Blue Serenade
TTITLE11=Sunny Blair - Please Send My Baby Back
TTITLE12=Ike Turner with Ben Burton - Troubles and Heartaches
TTITLE13=Ike Turner with Ben Burton - You're Driving Me Insane
TTITLE14=Drifting Slim - Good Morning Baby
TTITLE15=Houston Boines - Relation Blues
TTITLE16=Charley Booker - Rabbit Blues
TTITLE17=Charley Booker - Charlie's Boogie Woogie
TTITLE18=Boyd Gilmore - Ramblin' On My Mind
TTITLE19=Brother Bell - Whole Heaps Of Mama
TTITLE20=Brother Bell - If You Feel Froggish
TTITLE21=Ike and Bonnie Turner - Lookin' For My Baby
TTITLE22=Ike and Bonnie Turner - My Heart Belongs To You
TTITLE23=Little Junior Parker - Bad Women Bad Whiskey
TTITLE24=Bobby 'Blue' Bland - Good Lovin'
TTITLE25=B.B. King - Shake It Up And Go
TTITLE26=Little Milton - Beggin' My Baby
TTITLE27=Little Milton - Somebody Told Me
TTITLE28=The Prisonaires - A Prisoner's Prayer
EXTD=with Ike Turner on piano \r\nexcept #04 (absent) and #10+11,29 (guitar)
EXTT0=
EXTT1=
EXTT2=
EXTT3=without Ike Turner
EXTT4=
EXTT5=
EXTT6=
EXTT7=
EXTT8=
EXTT9=
EXTT10=
EXTT11=
EXTT12=
EXTT13=
EXTT14=
EXTT15=
EXTT16=
EXTT17=
EXTT18=
EXTT19=
EXTT20=
EXTT21=
EXTT22=
EXTT23=
EXTT24=
EXTT25=
EXTT26=
EXTT27=
EXTT28=
PLAYORDER=
